<?xml version="1.0" standalone="no"?>
<!DOCTYPE svg PUBLIC "-//W3C//DTD SVG 20010904//EN"
 "http://www.w3.org/TR/2001/REC-SVG-20010904/DTD/svg10.dtd">
<svg version="1.0" xmlns="http://www.w3.org/2000/svg"
 width="260.000000pt" height="260.000000pt" viewBox="0 0 260.000000 260.000000"
 preserveAspectRatio="xMidYMid meet">
<metadata>
Created by potrace 1.11, written by Peter Selinger 2001-2013
</metadata>
<g transform="translate(0.000000,260.000000) scale(0.100000,-0.100000)"
fill="#000000" stroke="none">
<path d="M1095 2586 c-340 -57 -631 -231 -831 -495 -83 -109 -186 -317 -218
-438 -130 -490 29 -1011 404 -1327 202 -171 459 -283 695 -304 60 -5 11 -8
-195 -12 -170 -3 -41 -5 340 -5 381 0 510 2 340 5 -205 4 -255 7 -195 12 196
17 403 93 590 216 90 60 277 247 337 337 171 260 248 555 219 849 -56 568
-453 1019 -1011 1147 -112 26 -364 34 -475 15z m523 -192 l32 -5 0 -109 0
-109 -103 6 c-97 5 -108 4 -161 -20 -49 -23 -60 -33 -77 -73 -18 -39 -20 -59
-15 -128 18 -271 18 -271 2 -335 -26 -100 -73 -189 -135 -252 l-56 -57 51 -49
c59 -56 126 -181 144 -269 8 -38 10 -90 5 -153 -4 -53 -8 -140 -9 -193 -1
-114 11 -138 90 -178 44 -23 59 -25 157 -23 l107 2 0 -108 0 -109 -96 -7
c-237 -18 -463 84 -541 244 -27 54 -28 61 -25 181 9 320 8 332 -15 376 -24 44
-85 104 -132 128 -23 12 -62 16 -161 16 l-130 0 0 140 0 140 125 0 c145 0 178
11 250 86 64 65 79 120 70 247 -4 56 -8 152 -9 212 -1 132 15 177 92 254 121
121 329 177 540 145z"/>
</g>
</svg>
